<svg width="2484" height="2484" viewBox="0 0 2484 2484" fill="none" xmlns="http://www.w3.org/2000/svg">
<g clip-path="url(#clip0_182_110)">
<path d="M1271.89 1725.5C1271.89 1688.64 1242.01 1658.76 1205.15 1658.76C1168.28 1658.76 1138.4 1688.64 1138.4 1725.5H1009.04V2117.7H1401.25V1725.5H1271.89Z" fill="#1EB7D0"/>
<path d="M1228.85 1217.77C1229.77 1180.92 1200.65 1150.3 1163.8 1149.37C1126.95 1148.44 1096.33 1177.57 1095.4 1214.41L966.083 1211.17L956.241 1603.24L1096.76 1606.77C1096.84 1568.7 1127.72 1537.86 1165.81 1537.86C1203.95 1537.86 1234.87 1568.79 1234.87 1606.92C1234.87 1608.04 1234.76 1609.13 1234.7 1610.24L1348.32 1613.09L1358.16 1221.01L1228.85 1217.77" fill="#4E7D9F"/>
<path d="M1775.88 650.52C1775.88 484.38 1910.56 349.703 2076.69 349.703C2242.83 349.703 2377.51 484.38 2377.51 650.52C2377.51 816.655 2242.83 951.332 2076.69 951.332C1910.56 951.332 1775.88 816.655 1775.88 650.52Z" fill="#1EB7D0"/>
<path d="M1482.06 797.533C1482.06 797.533 1409.21 769.533 1408.37 775.52C1407.52 781.506 1430.95 793.285 1430.95 793.285C1430.95 793.285 1396.12 797.732 1376.86 798.874C1369.57 799.306 1363.32 804.97 1361.91 812.323L1358.26 831.42C1358.26 831.42 1393.6 835.245 1412.89 835.921C1432.19 836.596 1489.99 835.354 1489.99 835.354L1482.06 797.533" fill="#D37E83"/>
<path d="M1362.46 810.499L1406.9 808.666" stroke="#0D111F" stroke-width="2.484" stroke-miterlimit="10" stroke-linecap="round" stroke-linejoin="round"/>
<path d="M1360.28 822.696L1404.72 820.868" stroke="#0D111F" stroke-width="2.484" stroke-miterlimit="10" stroke-linecap="round" stroke-linejoin="round"/>
<path d="M2135.91 1033.26C2135.91 1033.26 2087.06 1094.13 2092.5 1096.76C2097.94 1099.38 2116.3 1080.65 2116.3 1080.65C2116.3 1080.65 2109.92 1115.19 2105.15 1133.87C2103.34 1140.95 2106.83 1148.63 2113.41 1152.21L2130.48 1161.51C2130.48 1161.51 2144.89 1129 2151.41 1110.83C2157.93 1092.66 2174.35 1037.22 2174.35 1037.22L2135.91 1033.26" fill="#D37E83"/>
<path d="M2111.83 1151.14L2123.62 1108.26" stroke="#0D111F" stroke-width="2.484" stroke-miterlimit="10" stroke-linecap="round" stroke-linejoin="round"/>
<path d="M2122.79 1156.92L2134.58 1114.03" stroke="#0D111F" stroke-width="2.484" stroke-miterlimit="10" stroke-linecap="round" stroke-linejoin="round"/>
<path d="M1902.38 661.931C1915.34 649.328 1915.64 628.407 1903.03 615.441L1856.68 567.783C1844.07 554.821 1823.15 554.533 1810.19 567.137C1797.23 579.741 1796.93 600.661 1809.54 613.623L1855.89 661.286C1868.5 674.247 1889.42 674.535 1902.38 661.931" fill="#D37E83"/>
<path d="M1808.18 569.09L1812.2 565.185C1824.05 553.654 1843.19 553.922 1854.72 565.776L1871.16 582.677C1868.57 609.917 1854.86 637.618 1842.54 647.554L1807.59 611.616C1796.05 599.762 1796.32 580.62 1808.18 569.09Z" fill="#BF626D"/>
<path d="M1722.75 598.868C1717.4 593.348 1713.23 587.138 1710.12 580.556C1709.96 580.297 1709.86 580.098 1709.81 580.004C1709.81 580.004 1709.85 579.964 1709.86 579.954C1698.06 554.374 1702.87 523.096 1724.21 502.339C1749.31 477.936 1788.31 476.714 1814.85 498.236C1814.88 498.246 1814.91 498.251 1814.94 498.266C1827.96 505.842 1843.8 537.17 1851.91 554.752C1855.59 562.73 1856.98 571.534 1855.91 580.257C1852.32 609.842 1833.38 670.447 1799.61 664.147C1769.19 658.474 1741.19 623.931 1722.75 598.868" fill="#D37E83"/>
<path d="M1774.93 622.525C1774.93 622.525 1785.45 622.476 1788.6 609.231" stroke="#0A090A" stroke-width="2.484" stroke-miterlimit="10" stroke-linecap="round" stroke-linejoin="round"/>
<path d="M1803.4 549.749C1803.65 549.501 1803.84 549.173 1803.9 548.8C1804.08 547.841 1803.44 546.922 1802.48 546.749C1785.59 543.688 1777.85 562.745 1777.78 562.939C1777.42 563.848 1777.86 564.872 1778.77 565.229C1779.68 565.587 1780.7 565.15 1781.06 564.241C1781.33 563.565 1787.83 547.682 1801.85 550.221C1802.44 550.325 1803 550.137 1803.4 549.749" fill="#0A090A"/>
<path d="M1731.09 609.901C1730.35 608.953 1729.63 608.019 1728.91 607.08C1733.89 601.605 1740.55 599.086 1740.66 599.046C1741.58 598.709 1742.59 599.186 1742.92 600.1C1743.26 601.014 1742.78 602.022 1741.87 602.365C1741.76 602.4 1735.43 604.779 1731.09 609.901Z" fill="#0A090A"/>
<path d="M1787.57 595.907C1787.57 595.907 1810.42 590.541 1813.16 558.493C1813.16 558.493 1779.57 571.087 1787.57 595.907Z" fill="white"/>
<path d="M1787.04 597.347C1787.41 596.985 1787.62 596.463 1787.57 595.907C1787.46 594.804 1785.22 568.811 1813.98 561.926C1814.93 561.697 1815.51 560.748 1815.28 559.799C1815.06 558.85 1814.11 558.269 1813.16 558.493C1781.36 566.109 1784.02 595.961 1784.06 596.264C1784.16 597.228 1785.02 597.934 1785.99 597.839C1786.4 597.799 1786.76 597.616 1787.04 597.347" fill="#0A090A"/>
<path d="M1865.03 520.214C1854.85 509.747 1838.11 509.513 1827.65 519.693C1817.18 529.872 1816.94 546.609 1827.12 557.077C1837.3 567.544 1854.04 567.778 1864.51 557.598C1874.97 547.414 1875.2 530.682 1865.03 520.214Z" fill="#D37E83"/>
<path d="M1839.19 548.87C1839.19 548.87 1830.25 527.517 1849.92 515.058" stroke="#0A090A" stroke-width="2.484" stroke-miterlimit="10" stroke-linecap="round" stroke-linejoin="round"/>
<path d="M1796.04 591.763C1794.03 591.316 1792.08 590.427 1790.42 588.966C1788.72 587.461 1787.57 585.583 1786.89 583.576C1788.48 576.606 1793.34 571.077 1798.46 567.003C1801.51 566.933 1804.6 567.927 1807.07 570.108C1808.24 571.146 1809.14 572.368 1809.83 573.68C1806.28 583.015 1800.73 588.539 1796.04 591.763Z" fill="#0D111F"/>
<path d="M1753.28 615.088C1756.9 614.388 1761.04 614.243 1765.75 614.864C1763.52 618.59 1761.17 621.745 1758.75 624.304C1758.61 622.828 1758.25 621.353 1757.56 619.942C1756.57 617.885 1755.05 616.27 1753.28 615.088Z" fill="white"/>
<path d="M1750.81 613.767C1750.8 613.767 1750.8 613.767 1750.8 613.767C1750.8 613.767 1750.8 613.767 1750.81 613.767ZM1749.57 631.602C1749.72 631.512 1749.87 631.428 1750.03 631.338C1750.53 631.035 1751.03 630.722 1751.54 630.385C1752 630.082 1752.45 629.764 1752.91 629.431C1753.45 629.038 1753.99 628.611 1754.53 628.169C1754.96 627.821 1755.4 627.473 1755.83 627.096C1756.48 626.524 1757.12 625.894 1757.77 625.253C1758.09 624.93 1758.42 624.642 1758.74 624.304H1758.75C1758.61 622.828 1758.24 621.353 1757.56 619.942C1756.56 617.885 1755.05 616.271 1753.27 615.088C1756.89 614.388 1761.03 614.244 1765.74 614.865C1766.19 614.924 1766.63 614.969 1767.09 615.043C1768.05 615.197 1768.96 614.542 1769.11 613.578C1769.26 612.619 1768.61 611.71 1767.65 611.561C1753.91 609.35 1744.4 613.265 1737.98 618.506C1738.25 618.834 1738.53 619.162 1738.81 619.49C1738.81 619.49 1738.81 619.49 1738.82 619.505C1739.27 620.041 1739.73 620.578 1740.19 621.109C1743.19 624.661 1746.33 628.174 1749.57 631.602" fill="#0D111F"/>
<path d="M1796.68 645.577C1802.34 646.391 1808.09 645.06 1813.06 642.328C1822.3 637.25 1828.29 627.061 1829.07 616.658C1829.48 611.322 1828.72 605.098 1825.5 600.661C1822.19 596.12 1816.07 594.59 1813.3 600.462C1810.61 606.176 1811.15 612.803 1808.41 618.526C1807.42 620.608 1806.03 622.565 1804.37 624.239C1803.03 625.138 1801.57 625.903 1799.94 626.465C1795.53 627.975 1783.87 628.725 1784.2 635.487C1784.48 641.478 1791.55 644.837 1796.68 645.577Z" fill="#0A090A"/>
<path d="M1810.97 624.92C1815.57 619.703 1822.39 617.691 1828.76 618.909C1827.34 628.507 1821.63 637.618 1813.06 642.328C1811.35 643.267 1809.52 643.972 1807.66 644.548C1805.07 638.1 1806.06 630.484 1810.97 624.92" fill="#F16FBE"/>
<path d="M1842.54 647.554L1677.52 774.68C1677.52 774.68 1592.65 796.584 1480.11 789.972L1467.77 849.508C1467.77 849.508 1594.7 916.765 1719.23 862.738C1843.75 808.711 1912.11 720.504 1912.11 720.504L1842.54 647.554Z" fill="#4E7D9F"/>
<path d="M2156.04 795.814C2110.91 721.741 1983.63 604.417 1954.33 604.417C1913.62 604.417 1880.62 637.419 1880.62 678.132C1880.62 711.552 2064.61 855.142 2064.61 855.142C2064.61 855.142 2107.9 930.283 2116.82 1042.66L2177.49 1046.71C2177.49 1046.71 2226.67 911.737 2156.04 795.814Z" fill="#4E7D9F"/>
<path d="M2369.69 726.441C2375.75 702.634 2378.99 677.695 2378.99 651.995C2378.99 596.22 2363.75 544.031 2337.3 499.249C2277.25 501.614 1996.72 512.762 1949.67 516.538C1896.93 520.766 1868.23 579.622 1868.23 579.622C1881.67 630.539 1844.02 649.029 1844.02 649.029C1876.72 722.909 2115.25 798.725 2115.25 798.725L2369.69 726.441" fill="#4E7D9F"/>
<path d="M1844.02 649.029L1913.6 721.98" stroke="#275F87" stroke-width="2.484" stroke-miterlimit="10" stroke-linecap="round" stroke-linejoin="round"/>
<path d="M2151.8 788.342C2151.8 788.342 2009.69 601.342 1960.69 599.325C1911.69 597.303 1879.04 637.862 1884.34 691.307" stroke="#275F87" stroke-width="2.484" stroke-miterlimit="10" stroke-linecap="round" stroke-linejoin="round"/>
<path d="M2169.11 818.657C2165.66 811.488 2161.82 804.354 2157.52 797.295C2142.83 773.18 2119.41 744.49 2093.53 716.748C2078.4 728.359 2068.61 746.566 2068.61 767.104C2068.61 802.183 2097.04 830.615 2132.12 830.615C2145.94 830.615 2158.69 826.149 2169.11 818.657Z" fill="#0D111F"/>
<path d="M1765.51 839.845C1754.97 819.407 1733.68 805.402 1709.09 805.402C1674.01 805.402 1645.58 833.834 1645.58 868.908C1645.58 873.355 1646.05 877.692 1646.92 881.88C1670.47 879.177 1694.89 873.3 1719.23 862.738C1735.65 855.614 1751.07 847.884 1765.51 839.845" fill="#0D111F"/>
<path d="M1757.51 500.625C1757.51 500.625 1796.21 542.655 1823.25 536.827C1823.25 536.827 1822.81 524.377 1831.2 516.319C1825.78 508.117 1820.14 501.291 1814.94 498.266C1814.91 498.251 1814.88 498.246 1814.85 498.236C1788.31 476.714 1749.31 477.936 1724.21 502.339C1702.87 523.096 1698.06 554.374 1709.86 579.954C1709.85 579.959 1709.81 580.004 1709.81 580.004C1709.86 580.098 1709.96 580.297 1710.12 580.556C1713.23 587.138 1717.4 593.348 1722.75 598.868C1722.75 598.868 1778.52 567.624 1757.51 500.625" fill="#0D111F"/>
<path d="M1982.78 1169.02C2223.9 1321.48 2298.75 1639.79 2149.42 1884.01C2000.09 2128.23 1682.64 2206.66 1437.05 2061.52L1982.78 1169.02Z" fill="#F5F5F5"/>
<path d="M1934.29 1598.87H1675.01C1677.51 1597.15 1680.09 1595.49 1682.77 1593.93C1674.8 1592.1 1667.6 1587.95 1661.25 1583.65C1652.32 1577.62 1643.17 1570.72 1638.25 1562C1633.49 1553.57 1633.82 1544.3 1639.78 1536.31C1645.94 1528.05 1656.16 1521.97 1666.26 1517.17C1675.08 1512.97 1684.59 1509.8 1694.44 1507.6C1682.63 1500.77 1676.56 1487.28 1677.03 1475.74C1677.33 1468.01 1680.4 1460.44 1686.59 1454.5C1692.92 1448.43 1702.24 1444.88 1711.74 1443.48C1720.39 1442.2 1729.15 1442.31 1737.85 1442.96C1734.71 1435.56 1739.37 1426.48 1746.39 1421.01C1755.77 1413.69 1768.97 1410 1781.88 1410.26C1795.04 1410.51 1807.75 1414.77 1816.83 1422.58C1821.56 1426.64 1825.19 1431.36 1827.89 1436.42C1839.47 1443.87 1846.85 1455.43 1847.44 1467.4C1863.25 1462.54 1883.81 1470.79 1893.49 1481.09C1906.68 1495.15 1897.97 1511.51 1887.17 1524.61C1904.41 1525.49 1919.78 1536.22 1925 1549.74C1930.79 1564.73 1923.82 1580.82 1911.76 1592.64C1919.61 1593.18 1927.56 1595.4 1934.29 1598.87" fill="#0A090A"/>
<path d="M1802.15 1668.33C1820.47 1667.45 1834.75 1651.75 1833.88 1633.42L1830.68 1566.05C1829.81 1547.72 1814.1 1533.44 1795.78 1534.31C1777.46 1535.18 1763.17 1550.89 1764.04 1569.21L1767.25 1636.59C1768.12 1654.92 1783.82 1669.2 1802.15 1668.33" fill="#D37E83"/>
<path d="M1792.94 1534.45L1798.61 1534.18C1815.38 1533.38 1829.75 1546.44 1830.54 1563.21L1831.68 1587.1C1811.41 1606.06 1782.36 1617.91 1766.32 1617.18L1763.91 1566.38C1763.11 1549.61 1776.18 1535.24 1792.94 1534.45Z" fill="#BF626D"/>
<path d="M1707.99 1499.66C1707.64 1491.88 1708.64 1484.35 1710.7 1477.26C1710.75 1476.96 1710.8 1476.73 1710.83 1476.63C1710.83 1476.63 1710.89 1476.62 1710.9 1476.62C1719.12 1449.25 1743.8 1428.71 1773.98 1427.28C1809.45 1425.59 1839.92 1450.88 1845.63 1485.06C1845.64 1485.1 1845.67 1485.12 1845.68 1485.16C1850.49 1499.67 1841.47 1534.12 1835.82 1552.93C1833.25 1561.47 1828.39 1569.1 1821.72 1575.02C1799.11 1595.09 1743.98 1628.43 1722.54 1600.94C1703.23 1576.19 1705.16 1531.12 1707.99 1499.66" fill="#D37E83"/>
<path d="M1731.76 1552.72C1731.76 1552.72 1739.79 1559.75 1751.08 1551.8" stroke="#0A090A" stroke-width="2.484" stroke-miterlimit="10" stroke-linecap="round" stroke-linejoin="round"/>
<path d="M1802.31 1516.53C1802.67 1516.52 1803.03 1516.39 1803.33 1516.15C1804.11 1515.54 1804.24 1514.41 1803.63 1513.64C1792.85 1499.96 1774.16 1509.24 1773.97 1509.34C1773.09 1509.79 1772.74 1510.87 1773.18 1511.75C1773.63 1512.63 1774.71 1512.98 1775.59 1512.54C1776.25 1512.2 1791.87 1504.5 1800.82 1515.86C1801.19 1516.32 1801.75 1516.56 1802.31 1516.53" fill="#0A090A"/>
<path d="M1706.91 1513.66C1706.99 1512.44 1707.07 1511.25 1707.16 1510.05C1714.62 1509.24 1721.37 1511.8 1721.48 1511.84C1722.41 1512.2 1722.86 1513.24 1722.5 1514.16C1722.13 1515.08 1721.1 1515.53 1720.17 1515.17C1720.07 1515.13 1713.65 1512.68 1706.91 1513.66Z" fill="#0A090A"/>
<path d="M1757.88 1541.72C1758.41 1541.69 1758.92 1541.44 1759.25 1540.98C1759.9 1540.07 1775.68 1518.8 1802.16 1532.9C1803.04 1533.36 1804.12 1533.04 1804.59 1532.16C1805.05 1531.29 1804.72 1530.2 1803.85 1529.74C1774.56 1514.16 1756.52 1538.64 1756.34 1538.89C1755.77 1539.69 1755.95 1540.81 1756.75 1541.39C1757.09 1541.63 1757.49 1541.74 1757.88 1541.72" fill="#0A090A"/>
<path d="M1706.31 1527.67C1713.94 1527.4 1722.89 1529.68 1732.17 1537.56C1732.92 1538.2 1733.02 1539.33 1732.38 1540.08C1731.74 1540.84 1730.61 1540.93 1729.85 1540.29C1721.29 1533.02 1713.13 1530.9 1706.24 1531.15C1706.25 1529.99 1706.28 1528.83 1706.31 1527.67Z" fill="#0A090A"/>
<path d="M1869 1535.5C1868.3 1520.7 1855.73 1509.28 1840.93 1509.98C1826.14 1510.68 1814.71 1523.25 1815.41 1538.05C1816.12 1552.84 1828.68 1564.27 1843.48 1563.57C1858.28 1562.86 1869.7 1550.3 1869 1535.5" fill="#D37E83"/>
<path d="M1830.11 1539.92C1830.11 1539.92 1837.66 1517.68 1860.99 1521.43" stroke="#0A090A" stroke-width="2.484" stroke-miterlimit="10" stroke-linecap="round" stroke-linejoin="round"/>
<path d="M1738.17 1577.86C1738.17 1577.86 1764.14 1585.67 1775.37 1561.13" stroke="#0A090A" stroke-width="2.484" stroke-miterlimit="10" stroke-linecap="round" stroke-linejoin="round"/>
<path d="M1707.98 1499.66C1707.63 1491.88 1708.64 1484.35 1710.7 1477.26C1710.75 1476.96 1710.79 1476.73 1710.82 1476.63C1710.82 1476.63 1710.88 1476.62 1710.89 1476.62C1719.12 1449.25 1743.8 1428.71 1773.97 1427.28C1809.45 1425.59 1839.92 1450.88 1845.63 1485.07C1845.64 1485.1 1845.67 1485.12 1845.68 1485.16C1847.84 1491.68 1850.97 1512.34 1850.63 1511.43C1843.34 1515.18 1832.94 1524.71 1830.68 1532.14C1830.25 1533.56 1828.32 1534.23 1827.23 1533.05C1817.3 1522.23 1815.15 1505.85 1821.55 1492.84C1813.51 1493.92 1805.24 1487.73 1800.86 1481.23C1797.33 1475.99 1795.33 1469.92 1794.21 1463.68C1793.6 1464.84 1792.9 1465.98 1792 1467.08C1788.66 1471.18 1783.83 1474.06 1778.53 1474.64C1772.37 1475.31 1766.49 1472.3 1762.72 1467.64C1762.42 1470.05 1761.85 1472.42 1760.8 1474.67C1758.62 1479.37 1754.48 1483.39 1749.21 1484.15C1744 1484.91 1738.81 1482.24 1735.66 1478.17C1735.49 1477.95 1735.37 1477.72 1735.21 1477.49C1734.49 1484.06 1732.46 1490.2 1726.79 1493.75C1722.97 1496.14 1718.09 1496.36 1714.52 1493.41C1714.1 1493.06 1713.72 1492.68 1713.36 1492.28C1712.19 1496.4 1710.41 1500.34 1707.68 1503.15C1707.78 1501.99 1707.88 1500.8 1707.98 1499.66" fill="#0A090A"/>
<path d="M1864.92 1560.18C1864.92 1551.62 1857.98 1544.68 1849.42 1544.68C1840.87 1544.68 1833.92 1551.62 1833.92 1560.18C1833.92 1568.74 1840.87 1575.68 1849.42 1575.68C1857.98 1575.68 1864.92 1568.74 1864.92 1560.18Z" fill="white"/>
<path d="M1350.37 1928.05C1351.78 1920.69 1358.03 1915.03 1365.32 1914.6C1384.57 1913.45 1419.41 1909.01 1419.41 1909.01C1419.41 1909.01 1395.98 1897.23 1396.82 1891.24C1397.5 1886.47 1443.88 1903.28 1462.69 1910.3C1486.35 1912.2 1647.6 1920.74 1708.67 1807.58L1814.95 1892.36C1814.95 1892.36 1773.03 2064.72 1457.73 1951.46C1439.16 1951.76 1413.11 1952.06 1401.35 1951.64C1382.06 1950.97 1346.71 1947.14 1346.71 1947.14L1350.37 1928.05" fill="#D37E83"/>
<path d="M1350.91 1926.22L1395.35 1924.39" stroke="#0D111F" stroke-width="2.484" stroke-miterlimit="10" stroke-linecap="round" stroke-linejoin="round"/>
<path d="M1348.74 1938.42L1393.18 1936.59" stroke="#0D111F" stroke-width="2.484" stroke-miterlimit="10" stroke-linecap="round" stroke-linejoin="round"/>
<path d="M1674.02 1838.91L1765.94 1626.24C1765.94 1626.24 1808.22 1632.36 1833.7 1602.25C1979.12 1627.93 2052.61 1857.66 2080.67 1973.31C1990.38 2067.61 1869.49 2122.81 1743.63 2132.69V1985.13L1674.02 1838.91Z" fill="#1EB7D0"/>
<path d="M1743.63 1985.13C1743.63 1985.13 1865.84 1918.82 1846.21 1764.85" stroke="white" stroke-width="2.484" stroke-miterlimit="10" stroke-linecap="round" stroke-linejoin="round"/>
<path d="M951.508 1926.22L764.815 1604.35L105.01 1685.75V1999.52L951.508 1926.22Z" fill="#1EB7D0"/>
<path d="M649.93 1027.86C648.618 1035.98 647.307 1044.09 645.995 1052.21C644.649 1060.52 650.486 1067.79 641.067 1077.04H325.375C327.106 1070.41 329.283 1063.9 331.915 1057.57C337.721 1043.61 346.462 1029.9 362.107 1026.13C370.452 1024.12 378.87 1024.96 387.327 1025.38C395.276 1025.77 402.548 1024.85 406.472 1017.14C410.039 1010.14 411.335 1001.87 413.107 994.281C414.799 987.032 416.719 979.749 420.18 973.112C434.064 946.503 466.903 948.376 490.34 935.867C492.282 934.834 494.111 933.661 495.882 932.414C499.181 928.683 502.102 924.54 504.919 920.61C511.715 911.121 518.01 901.294 525.169 892.074C536.704 877.225 551.514 863.473 569.935 858.455C573.636 856.935 577.581 855.862 581.704 855.306C594.76 853.542 607.826 857.392 619.009 864.074C630.977 871.223 641.455 881.567 648.375 893.688C655.33 905.87 658.778 919.572 660.03 933.467C661.456 949.226 659.752 965.059 657.486 980.658C655.191 996.427 652.474 1012.14 649.93 1027.86" fill="#0A090A"/>
<path d="M561.198 1104.43C542.29 1103.53 527.56 1087.33 528.459 1068.42L531.763 998.911C532.662 980.007 548.863 965.277 567.766 966.172C586.674 967.071 601.404 983.276 600.505 1002.18L597.201 1071.69C596.302 1090.59 580.101 1105.33 561.198 1104.43Z" fill="#D37E83"/>
<path d="M570.694 966.311L564.837 966.032C547.543 965.213 532.719 978.691 531.899 995.985L530.727 1020.63C551.642 1040.19 581.604 1052.42 598.152 1051.67L600.641 999.253C601.466 981.96 587.983 967.135 570.694 966.311" fill="#BF626D"/>
<path d="M658.337 930.427C658.7 922.394 657.662 914.639 655.545 907.321C655.481 907.003 655.436 906.774 655.406 906.665C655.406 906.665 655.347 906.66 655.337 906.66C646.851 878.422 621.39 857.234 590.261 855.753C553.662 854.014 522.229 880.106 516.342 915.369C516.332 915.404 516.302 915.434 516.292 915.463C511.329 930.432 520.634 965.978 526.467 985.383C529.11 994.196 534.128 1002.06 541.008 1008.17C564.333 1028.87 621.202 1063.27 643.324 1034.91C663.241 1009.37 661.254 962.878 658.337 930.427" fill="#D37E83"/>
<path d="M633.815 985.169C633.815 985.169 625.534 992.423 613.879 984.22" stroke="#0A090A" stroke-width="2.484" stroke-miterlimit="10" stroke-linecap="round" stroke-linejoin="round"/>
<path d="M561.034 947.835C560.662 947.815 560.294 947.686 559.981 947.437C559.181 946.807 559.042 945.644 559.673 944.844C570.796 930.74 590.077 940.313 590.271 940.413C591.18 940.88 591.538 941.987 591.081 942.897C590.619 943.811 589.511 944.173 588.597 943.711C587.916 943.369 571.81 935.42 562.574 947.129C562.192 947.621 561.61 947.86 561.034 947.835" fill="#0A090A"/>
<path d="M659.447 944.864C659.367 943.612 659.288 942.375 659.198 941.148C651.498 940.303 644.533 942.946 644.414 942.991C643.465 943.364 642.998 944.437 643.37 945.381C643.748 946.334 644.816 946.796 645.77 946.424C645.874 946.384 652.492 943.86 659.447 944.864Z" fill="#0A090A"/>
<path d="M606.867 973.818C606.325 973.793 605.799 973.524 605.456 973.052C604.775 972.109 588.51 950.175 561.181 964.716C560.282 965.198 559.164 964.855 558.687 963.956C558.205 963.052 558.548 961.934 559.447 961.457C589.663 945.381 608.273 970.638 608.457 970.896C609.048 971.726 608.864 972.879 608.034 973.47C607.682 973.728 607.269 973.837 606.867 973.818" fill="#0A090A"/>
<path d="M660.074 959.326C652.204 959.043 642.969 961.393 633.395 969.525C632.615 970.186 632.521 971.353 633.182 972.128C633.843 972.908 635.01 973.003 635.785 972.342C644.618 964.835 653.029 962.659 660.138 962.913C660.128 961.71 660.098 960.518 660.074 959.326" fill="#0A090A"/>
<path d="M492.233 967.399C492.959 952.132 505.92 940.348 521.187 941.073C536.448 941.799 548.238 954.76 547.512 970.027C546.787 985.294 533.825 997.078 518.559 996.352C503.292 995.627 491.509 982.665 492.233 967.399Z" fill="#D37E83"/>
<path d="M532.354 971.964C532.354 971.964 524.569 949.012 500.504 952.887" stroke="#0A090A" stroke-width="2.484" stroke-miterlimit="10" stroke-linecap="round" stroke-linejoin="round"/>
<path d="M627.205 1011.09C627.205 1011.09 600.408 1019.16 588.822 993.839" stroke="#0A090A" stroke-width="2.484" stroke-miterlimit="10" stroke-linecap="round" stroke-linejoin="round"/>
<path d="M516.294 915.463C516.303 915.434 516.333 915.404 516.343 915.369C522.23 880.106 553.663 854.014 590.262 855.753C621.392 857.233 646.853 878.422 655.338 906.66C655.348 906.66 655.407 906.665 655.407 906.665C655.437 906.774 655.482 907.003 655.547 907.321C657.663 914.639 658.771 916.084 658.408 924.118C658.408 924.118 643.246 916.457 610.81 886.043C608.713 884.081 600.546 860.314 600.546 860.314L609.344 885.233C609.344 885.233 605.549 948.61 514.893 941.044L515.727 938.42C514.585 929.21 514.475 920.948 516.294 915.463" fill="#0A090A"/>
<path d="M522.807 992.582C522.807 980.246 512.807 970.24 500.461 970.24C488.123 970.24 478.119 980.246 478.119 992.582C478.119 1004.93 488.123 1014.93 500.461 1014.93C512.807 1014.93 522.807 1004.93 522.807 992.582Z" stroke="#4E7D9F" stroke-width="2.484" stroke-miterlimit="10" stroke-linecap="round" stroke-linejoin="round"/>
<path d="M418.155 1595.41C418.155 1595.41 371.867 1574.94 350.701 1612.62C350.701 1612.62 196.953 1647.28 194.393 1659.14C191.838 1671 199.976 1676.35 199.976 1676.35H414.899L418.155 1595.41" fill="#D37E83"/>
<path d="M294.97 1422.04L818.161 1446.01C818.161 1446.01 899.954 1457.99 899.954 1564.47C899.954 1670.94 749.061 1685.75 749.061 1685.75L393.686 1680.1L399.326 1533.44C399.326 1533.44 281.574 1541.2 294.97 1422.04" fill="#0D111F"/>
<path d="M399.32 1533.44L790.31 1553.89" stroke="white" stroke-width="2.484" stroke-miterlimit="10" stroke-linecap="round" stroke-linejoin="round"/>
<path d="M893.572 1338.69C893.572 1338.69 966.422 1310.69 967.267 1316.67C968.111 1322.66 944.682 1334.44 944.682 1334.44C944.682 1334.44 979.518 1338.89 998.774 1340.03C1006.06 1340.46 1012.31 1346.12 1013.72 1353.48L1017.38 1372.57C1017.38 1372.57 982.027 1376.4 962.741 1377.07C943.445 1377.76 885.643 1376.51 885.643 1376.51L893.572 1338.69" fill="#D37E83"/>
<path d="M1013.18 1351.65L968.743 1349.83" stroke="#0D111F" stroke-width="2.484" stroke-miterlimit="10" stroke-linecap="round" stroke-linejoin="round"/>
<path d="M1015.35 1363.85L970.912 1362.02" stroke="#0D111F" stroke-width="2.484" stroke-miterlimit="10" stroke-linecap="round" stroke-linejoin="round"/>
<path d="M294.971 1422.04C294.971 1422.04 335.107 1062.17 530.4 1027.68L528.423 1010.55L603.321 1045.66L598.159 1051.67L666.166 1233.08C673.926 1266.1 700.514 1291.39 733.89 1297.48L899.955 1327.78V1396.76C899.955 1396.76 670.349 1432.32 620.465 1410.56L623.6 1437.09L294.971 1422.04" fill="#E94643"/>
<path d="M620.461 1410.56C620.461 1410.56 498.248 1344.25 517.886 1190.27" stroke="white" stroke-width="2.484" stroke-miterlimit="10" stroke-linecap="round" stroke-linejoin="round"/>
<path d="M899.947 1327.78L870.666 1322.43L872.445 1400.73L899.947 1396.76V1327.78" fill="white"/>
<path d="M1014.59 755.961C978.259 749.731 943.756 774.129 937.527 810.465C931.297 846.796 955.699 881.298 992.03 887.523L970.171 1015.02L1097.67 1036.88C1103.89 1000.55 1138.4 976.147 1174.73 982.377C1211.06 988.607 1235.46 1023.1 1229.23 1059.44L1356.73 1081.3L1423 694.74L1036.44 628.462L1014.59 755.961Z" fill="#E94643"/>
<path d="M1846.93 1110.59C1880.48 1121.54 1913.4 1132.29 1946.83 1143.19C1957.85 1109.43 1968.54 1076.7 1979.44 1043.28C1945.83 1032.33 1913.08 1021.64 1879.55 1010.71C1868.58 1044.3 1857.9 1077.02 1846.93 1110.59V1110.59ZM1994.18 1038.78C1992.32 1044.63 1991.1 1048.56 1989.82 1052.47C1979.35 1084.52 1968.89 1116.57 1958.38 1148.62C1955.31 1157.98 1953.8 1158.81 1944.7 1155.84C1910.03 1144.56 1875.42 1133.1 1840.7 1121.98C1833.74 1119.75 1831.53 1116.42 1833.91 1109.25C1845.59 1074.13 1857.04 1038.94 1868.4 1003.72C1870.41 997.5 1873.7 995.398 1880.11 997.51C1915.77 1009.27 1951.53 1020.77 1987.14 1032.69C1990.09 1033.67 1992.24 1037.04 1994.18 1038.78" fill="#1EB7D0"/>
<path d="M813.008 787.88C829.075 756.457 844.838 725.626 860.845 694.313C829.234 678.147 798.571 662.468 767.278 646.461C751.191 677.948 735.512 708.621 719.466 740.023C750.918 756.115 781.566 771.799 813.008 787.88V787.88ZM765.136 631.199C770.626 633.952 774.312 635.775 777.969 637.648C807.99 653.009 838.007 668.365 868.009 683.756C876.782 688.257 877.364 689.881 873.012 698.402C856.433 730.872 839.691 763.269 823.277 795.819C819.983 802.342 816.357 804.001 809.645 800.524C776.786 783.493 743.819 766.677 710.816 749.94C704.989 746.979 703.424 743.407 706.514 737.41C723.713 704.02 740.674 670.511 758.017 637.196C759.453 634.444 763.114 632.844 765.136 631.199" fill="#1EB7D0"/>
<path d="M1436.76 1424.06C1472.57 1447.17 1506.82 1469.27 1542.52 1492.3C1544.61 1450.01 1546.63 1409.25 1548.74 1366.71C1510.62 1386.23 1474.41 1404.78 1436.76 1424.06V1424.06ZM1557.11 1429.73C1555.89 1453 1554.71 1476.27 1553.43 1499.53C1552.95 1508.42 1549.37 1510.45 1541.99 1505.7C1502.81 1480.49 1463.68 1455.21 1424.6 1429.85C1417.69 1425.36 1417.96 1420.96 1425.27 1417.2C1466.66 1395.85 1508.07 1374.57 1549.54 1353.38C1557.36 1349.38 1560.76 1351.78 1560.36 1360.74C1559.34 1383.74 1558.2 1406.73 1557.11 1429.73" fill="#E94643"/>
<path d="M366.192 858.436C397.192 829.194 426.841 801.219 457.741 772.067C417.172 759.92 378.078 748.211 337.283 735.994C347.124 777.671 356.471 817.271 366.192 858.436V858.436ZM400.475 742.94C422.773 749.686 445.086 756.393 467.369 763.199C475.892 765.797 476.996 769.757 470.625 775.788C436.78 807.807 402.872 839.751 368.895 871.631C362.891 877.264 358.682 875.948 356.772 867.954C345.949 822.661 335.183 777.358 324.527 732.03C322.518 723.48 325.658 720.753 334.267 723.281C356.355 729.769 378.408 736.377 400.475 742.94" fill="#E94643"/>
<path d="M1338.11 542.809C1340.67 547.265 1345.31 555.671 1350.26 563.883C1358.3 577.217 1370.06 577.461 1378.66 564.365C1383.33 557.271 1387.03 549.545 1391.79 542.521C1409.12 516.925 1441.51 517.755 1457.51 544.11C1461.35 550.44 1464.6 557.122 1468.44 563.451C1477.28 578.062 1489.21 578.216 1498.39 563.789C1502.95 556.625 1506.7 548.929 1511.47 541.915C1518.44 531.671 1527.98 525.222 1540.82 524.601C1545.52 524.372 1549.86 525.918 1549.21 530.985C1548.88 533.553 1544.69 537.274 1541.92 537.577C1532.19 538.636 1525.71 543.698 1520.86 551.587C1516.13 559.288 1512 567.42 1506.71 574.718C1494.01 592.245 1473.46 592.389 1460.57 574.947C1455.39 567.937 1451.6 559.889 1447.14 552.342C1435.26 532.287 1414.34 531.844 1401.73 551.473C1397 558.85 1393.15 566.844 1388.05 573.933C1374.79 592.355 1352.7 591.758 1340.42 572.806C1335.51 565.214 1331.34 557.156 1326.56 549.481C1321.97 542.118 1315.61 537.304 1306.52 536.872C1301.78 536.648 1297.77 534.249 1299.31 529.336C1300.09 526.822 1304.79 523.95 1307.7 523.96C1319.45 524.005 1328.55 529.842 1338.11 542.809Z" fill="#E94643"/>
<path d="M662.981 2062.33C665.539 2066.78 670.179 2075.18 675.132 2083.39C683.176 2096.73 694.93 2096.98 703.534 2083.88C708.194 2076.78 711.906 2069.06 716.66 2062.03C733.983 2036.44 766.385 2037.27 782.382 2063.62C786.222 2069.95 789.476 2076.63 793.306 2082.97C802.149 2097.57 814.082 2097.73 823.258 2083.31C827.819 2076.14 831.57 2068.44 836.344 2061.43C843.314 2051.18 852.858 2044.73 865.685 2044.11C870.395 2043.89 874.737 2045.43 874.081 2050.5C873.753 2053.06 869.56 2056.79 866.793 2057.09C857.065 2058.15 850.577 2063.21 845.733 2071.1C840.999 2078.8 836.866 2086.93 831.58 2094.23C818.881 2111.76 798.324 2111.9 785.442 2094.46C780.26 2087.45 776.475 2079.4 772.003 2071.85C760.135 2051.8 739.21 2051.36 726.606 2070.98C721.871 2078.37 718.026 2086.35 712.919 2093.45C699.664 2111.87 677.567 2111.27 665.291 2092.32C660.382 2084.73 656.204 2076.67 651.425 2068.99C646.84 2061.63 640.481 2056.82 631.384 2056.39C626.655 2056.16 622.645 2053.76 624.181 2048.85C624.966 2046.34 629.655 2043.46 632.576 2043.48C644.321 2043.52 653.422 2049.35 662.981 2062.33" fill="#4E7D9F"/>
<path d="M895.023 1066.04C923.828 1083.49 950.233 1099.48 978.093 1116.36C949.676 1131.98 922.506 1146.92 895.023 1162.03C895.023 1130.25 895.023 1099.43 895.023 1066.04Z" fill="#1EB7D0"/>
<path d="M1490 1169.02C1490 1162.04 1495.65 1156.39 1502.63 1156.39C1509.6 1156.39 1515.26 1162.04 1515.26 1169.02C1515.26 1175.99 1509.6 1181.65 1502.63 1181.65C1495.65 1181.65 1490 1175.99 1490 1169.02Z" fill="#4E7D9F"/>
<path d="M614.57 644.548C614.57 637.573 620.224 631.92 627.204 631.92C634.174 631.92 639.833 637.573 639.833 644.548C639.833 651.523 634.174 657.177 627.204 657.177C620.224 657.177 614.57 651.523 614.57 644.548Z" fill="#4E7D9F"/>
<path d="M887.324 1714.88C887.324 1707.9 892.978 1702.25 899.953 1702.25C906.928 1702.25 912.582 1707.9 912.582 1714.88C912.582 1721.85 906.928 1727.51 899.953 1727.51C892.978 1727.51 887.324 1721.85 887.324 1714.88Z" fill="#4E7D9F"/>
<path d="M835.59 499.249C835.59 492.274 841.243 486.621 848.219 486.621C855.194 486.621 860.847 492.274 860.847 499.249C860.847 506.224 855.194 511.883 848.219 511.883C841.243 511.883 835.59 506.224 835.59 499.249Z" fill="#4E7D9F"/>
<path d="M1468.94 1764.85C1468.94 1759.43 1473.33 1755.05 1478.75 1755.05C1484.16 1755.05 1488.54 1759.43 1488.54 1764.85C1488.54 1770.26 1484.16 1774.65 1478.75 1774.65C1473.33 1774.65 1468.94 1770.26 1468.94 1764.85Z" fill="#4E7D9F"/>
<path d="M1661.39 1322.43C1661.39 1315.46 1667.05 1309.8 1674.02 1309.8C1681 1309.8 1686.65 1315.46 1686.65 1322.43C1686.65 1329.41 1681 1335.06 1674.02 1335.06C1667.05 1335.06 1661.39 1329.41 1661.39 1322.43Z" fill="#4E7D9F"/>
<path d="M181.262 1519.28C181.262 1512.3 186.917 1506.65 193.891 1506.65C200.868 1506.65 206.523 1512.3 206.523 1519.28C206.523 1526.25 200.868 1531.91 193.891 1531.91C186.917 1531.91 181.262 1526.25 181.262 1519.28Z" fill="#4E7D9F"/>
<path d="M2226.31 1276.74C2226.31 1269.76 2231.97 1264.11 2238.95 1264.11C2245.92 1264.11 2251.57 1269.76 2251.57 1276.74C2251.57 1283.71 2245.92 1289.36 2238.95 1289.36C2231.97 1289.36 2226.31 1283.71 2226.31 1276.74Z" fill="#4E7D9F"/>
<path d="M229.146 1169.02C229.146 1165.53 231.972 1162.71 235.461 1162.71C238.948 1162.71 241.776 1165.53 241.776 1169.02C241.776 1172.51 238.948 1175.33 235.461 1175.33C231.972 1175.33 229.146 1172.51 229.146 1169.02Z" fill="#4E7D9F"/>
<path d="M2277.25 1429.85C2277.25 1426.36 2280.08 1423.54 2283.57 1423.54C2287.05 1423.54 2289.88 1426.36 2289.88 1429.85C2289.88 1433.34 2287.05 1436.16 2283.57 1436.16C2280.08 1436.16 2277.25 1433.34 2277.25 1429.85Z" fill="#4E7D9F"/>
<path d="M1411.71 1264.11C1411.71 1257.13 1417.36 1251.47 1424.34 1251.47C1431.31 1251.47 1436.97 1257.13 1436.97 1264.11C1436.97 1271.08 1431.31 1276.74 1424.34 1276.74C1417.36 1276.74 1411.71 1271.08 1411.71 1264.11Z" fill="#4E7D9F"/>
<path d="M424.463 2043.34C424.463 2039.85 427.293 2037.02 430.778 2037.02C434.267 2037.02 437.095 2039.85 437.095 2043.34C437.095 2046.82 434.267 2049.65 430.778 2049.65C427.293 2049.65 424.463 2046.82 424.463 2043.34Z" fill="#4E7D9F"/>
<path d="M777.684 1181.65C777.684 1174.67 783.337 1169.02 790.312 1169.02C797.287 1169.02 802.941 1174.67 802.941 1181.65C802.941 1188.62 797.287 1194.28 790.312 1194.28C783.337 1194.28 777.684 1188.62 777.684 1181.65Z" fill="#4E7D9F"/>
<path d="M526.041 460.092C526.041 456.604 528.868 453.777 532.355 453.777C535.843 453.777 538.67 456.604 538.67 460.092C538.67 463.574 535.843 466.406 532.355 466.406C528.868 466.406 526.041 463.574 526.041 460.092Z" fill="#4E7D9F"/>
<path d="M1144.57 558.493C1144.57 551.518 1150.22 545.864 1157.2 545.864C1164.18 545.864 1169.83 551.518 1169.83 558.493C1169.83 565.468 1164.18 571.121 1157.2 571.121C1150.22 571.121 1144.57 565.468 1144.57 558.493Z" fill="#4E7D9F"/>
<path d="M1292.66 615.878C1292.66 612.39 1295.48 609.564 1298.97 609.564C1302.46 609.564 1305.29 612.39 1305.29 615.878C1305.29 619.365 1302.46 622.192 1298.97 622.192C1295.48 622.192 1292.66 619.365 1292.66 615.878Z" fill="#4E7D9F"/>
<path d="M1541.54 664.599C1541.54 654.191 1549.98 645.746 1560.39 645.746C1570.8 645.746 1579.24 654.191 1579.24 664.599C1579.24 675.012 1570.8 683.453 1560.39 683.453C1549.98 683.453 1541.54 675.012 1541.54 664.599Z" fill="#4E7D9F"/>
<path d="M1626.72 1114.03C1626.72 1103.62 1635.17 1095.18 1645.58 1095.18C1655.99 1095.18 1664.43 1103.62 1664.43 1114.03C1664.43 1124.45 1655.99 1132.89 1645.58 1132.89C1635.17 1132.89 1626.72 1124.45 1626.72 1114.03Z" fill="#4E7D9F"/>
<path d="M1459.89 1526.76C1459.89 1516.35 1468.33 1507.91 1478.75 1507.91C1489.15 1507.91 1497.59 1516.35 1497.59 1526.76C1497.59 1537.17 1489.15 1545.61 1478.75 1545.61C1468.33 1545.61 1459.89 1537.17 1459.89 1526.76Z" fill="#4E7D9F"/>
</g>
<defs>
<clipPath id="clip0_182_110">
<rect width="2484" height="2484" fill="white"/>
</clipPath>
</defs>
</svg>
