<svg width="962" height="330" viewBox="0 0 962 330" fill="none" xmlns="http://www.w3.org/2000/svg">
<path fill-rule="evenodd" clip-rule="evenodd" d="M329.652 164.826C329.652 179.003 327.862 192.761 324.497 205.888H307.413L307.445 205.776H299.636C302.335 196.709 304.07 187.493 304.88 178.264L293.133 171.482C293.134 171.454 293.135 171.427 293.136 171.4L312.144 182.365C312.821 176.613 313.17 170.76 313.17 164.826C313.17 103.222 275.619 50.3892 222.158 27.9672V38.0353C204.535 30.0441 184.965 25.5943 164.356 25.5943C143.315 25.5943 123.356 30.2328 105.448 38.5429V28.8437C80.775 39.6328 59.6032 56.9402 44.1102 78.5889L24.5689 78.2057C53.6181 31.2686 105.571 0 164.826 0C255.857 0 329.652 73.7952 329.652 164.826ZM35.92 173.564L28.4597 177.931L35.9233 173.622C35.9222 173.603 35.9211 173.583 35.92 173.564ZM24.5723 180.207L17.7373 184.207C16.9096 177.864 16.4826 171.395 16.4826 164.826C16.4826 144.753 20.4695 125.611 27.6947 108.149H10.0032C3.53179 125.822 0 144.911 0 164.826C0 255.857 73.7952 329.652 164.826 329.652C226.667 329.652 280.553 295.596 308.753 245.215H291.764L291.772 245.192H280.818C271.359 259.009 259.775 270.654 246.767 279.938L253.421 283.82C228.699 302.256 198.037 313.17 164.826 313.17C132.131 313.17 101.907 302.593 77.3882 284.674L77.8059 284.607L85.996 280L85.9562 279.975L83.5668 281.354C67.3396 269.985 53.2784 254.976 42.7184 236.686C32.3778 218.776 26.4411 199.531 24.5723 180.207ZM32.1914 98.3173H13.969C15.567 94.6979 17.2915 91.1469 19.1368 87.6697L37.7132 88.3103C35.7489 91.5665 33.9062 94.9042 32.1914 98.3173Z" fill="#1EB7D0"/>
<circle cx="165.235" cy="165.235" r="106.983" stroke="#4F7EA0" stroke-width="6"/>
<path fill-rule="evenodd" clip-rule="evenodd" d="M24.998 184.045C27.2478 202.074 33.0636 219.96 42.7189 236.684C53.2789 254.974 67.3402 269.983 83.5673 281.352L83.9451 281.134C52.3356 258.965 30.2393 224.155 24.998 184.045ZM28.3733 177.979C32.1323 219.932 54.8024 256.438 87.7969 278.91L95.3345 274.558C113.992 286.381 135.405 293.186 157.353 294.379C159.807 294.518 162.279 294.589 164.768 294.589C190.88 294.589 215.173 286.799 235.449 273.416L243.271 277.932C275.941 255.076 298.18 218.332 301.421 176.265L293.134 171.482C293.208 169.701 293.245 167.911 293.245 166.112C293.245 164.643 293.22 163.18 293.171 161.723L277.378 162.042C277.406 163.076 277.42 164.113 277.42 165.154C277.42 227.42 226.944 277.896 164.678 277.896C102.412 277.896 51.936 227.42 51.936 165.154C51.936 102.888 102.412 52.4119 164.678 52.4119C192.247 52.4119 217.505 62.3071 237.093 78.7397L242.38 63.7006C239.867 61.7994 237.268 59.9779 234.583 58.2421C230.655 55.6942 226.578 53.3551 222.37 51.2405V41.224C204.873 33.1152 185.378 28.5897 164.826 28.5897C143.474 28.5897 123.263 33.4741 105.249 42.1865V51.9166C103.476 52.8342 101.715 53.7971 99.9682 54.8057C56.455 79.928 33.197 126.66 35.9237 173.62L28.3733 177.979Z" fill="#E94643"/>
<path d="M161.065 89.9205C176.253 89.9205 189.303 92.6398 200.212 98.0772C211.125 103.516 219.539 111.81 225.454 122.961C231.372 134.112 234.331 148.101 234.331 164.929C234.331 181.756 231.372 195.745 225.454 206.897C219.539 218.048 211.125 226.343 200.212 231.78C189.303 237.219 176.253 239.937 161.065 239.937H116.964C114.516 239.937 112.532 237.953 112.532 235.506V94.3518C112.532 91.9044 114.516 89.9205 116.964 89.9205H161.065ZM159.322 224.953C171.84 224.953 182.203 223.006 190.413 219.109C198.622 215.21 204.847 208.849 209.09 200.025C213.332 191.198 215.453 179.499 215.453 164.929C215.453 150.289 213.332 138.573 209.09 129.782C204.847 120.993 198.622 114.648 190.413 110.748C182.203 106.848 171.84 104.899 159.322 104.899H134.612C132.165 104.899 130.181 106.883 130.181 109.33V220.522C130.181 222.969 132.165 224.953 134.612 224.953H159.322Z" fill="url(#paint0_linear_11_75)" stroke="url(#paint1_linear_11_75)" stroke-width="4.8985"/>
<path d="M442.07 86.1557H457.006C462.778 86.1557 467.538 87.3183 471.286 89.6436C475.061 91.9415 477.879 95.1285 479.739 99.2046C481.599 103.281 482.53 107.945 482.53 113.197C482.53 118.477 481.599 123.155 479.739 127.231C477.879 131.307 475.061 134.508 471.286 136.833C467.538 139.158 462.778 140.321 457.006 140.321H442.07V86.1557ZM452.246 95.3063V131.17H456.103C459.632 131.17 462.532 130.404 464.803 128.873C467.101 127.313 468.81 125.179 469.932 122.471C471.081 119.763 471.655 116.699 471.655 113.279C471.683 109.833 471.136 106.755 470.014 104.047C468.892 101.338 467.169 99.2046 464.844 97.6453C462.546 96.086 459.632 95.3063 456.103 95.3063H452.246ZM490.397 86.1557H524.004V95.2243H500.574V108.766H523.676V117.547H500.574V131.252H524.004V140.321H490.397V86.1557ZM561.777 140.321H550.082L530.591 86.1557H542.121L555.95 127.436L569.778 86.1557H581.309L561.777 140.321ZM587.774 86.1557H621.381V95.2243H597.95V108.766H621.053V117.547H597.95V131.252H621.381V140.321H587.774V86.1557ZM631.537 86.1557H641.796V131.252H662.108V140.321H631.537V86.1557ZM677.817 113.197C677.817 116.644 678.528 119.763 679.951 122.553C681.401 125.344 683.384 127.559 685.901 129.201C688.417 130.815 691.331 131.622 694.641 131.622C697.951 131.622 700.865 130.815 703.381 129.201C705.925 127.559 707.909 125.344 709.331 122.553C710.754 119.763 711.465 116.644 711.465 113.197C711.465 109.75 710.754 106.646 709.331 103.883C707.909 101.092 705.925 98.8763 703.381 97.235C700.865 95.5936 697.951 94.7729 694.641 94.7729C691.331 94.7729 688.417 95.5936 685.901 97.235C683.384 98.8763 681.401 101.092 679.951 103.883C678.528 106.646 677.817 109.75 677.817 113.197ZM667.148 113.197C667.148 109.258 667.832 105.592 669.2 102.2C670.595 98.7806 672.537 95.7988 675.027 93.2546C677.516 90.7105 680.429 88.7272 683.767 87.3046C687.132 85.8821 690.756 85.1708 694.641 85.1708C698.58 85.1708 702.219 85.8821 705.556 87.3046C708.894 88.7272 711.793 90.7105 714.255 93.2546C716.745 95.7988 718.674 98.7806 720.041 102.2C721.409 105.592 722.093 109.258 722.093 113.197C722.093 117.164 721.423 120.857 720.082 124.277C718.742 127.669 716.841 130.651 714.379 133.222C711.917 135.766 709.017 137.75 705.679 139.172C702.342 140.595 698.662 141.306 694.641 141.306C690.565 141.306 686.844 140.595 683.48 139.172C680.142 137.75 677.242 135.766 674.78 133.222C672.346 130.651 670.458 127.669 669.118 124.277C667.804 120.857 667.148 117.164 667.148 113.197ZM729.756 86.1557H747.77C751.19 86.1557 754.281 86.7438 757.044 87.9201C759.834 89.0965 762.05 90.902 763.692 93.3367C765.333 95.744 766.154 98.8216 766.154 102.569C766.154 106.29 765.333 109.422 763.692 111.966C762.05 114.51 759.834 116.439 757.044 117.752C754.281 119.038 751.19 119.681 747.77 119.681H739.974V140.321H729.756V86.1557ZM739.974 111.433H744.939C746.854 111.433 748.577 111.159 750.109 110.612C751.669 110.038 752.913 109.121 753.843 107.863C754.774 106.604 755.239 104.922 755.239 102.816C755.239 100.682 754.774 99.0131 753.843 97.8094C752.913 96.5784 751.669 95.703 750.109 95.1832C748.577 94.6361 746.854 94.3626 744.939 94.3626H739.974V111.433ZM773.791 86.1557H807.398V95.2243H783.968V108.766H807.07V117.547H783.968V131.252H807.398V140.321H773.791V86.1557ZM817.226 86.1557H838.072C841.136 86.1557 843.885 86.7985 846.32 88.0843C848.754 89.3427 850.683 91.1892 852.105 93.6239C853.555 96.0313 854.28 98.9447 854.28 102.364C854.28 105.756 853.651 108.547 852.393 110.735C851.134 112.896 849.616 114.524 847.838 115.618C846.087 116.713 844.459 117.342 842.955 117.506L856.25 140.321H844.678L832.655 118.286H827.444V140.321H817.226V86.1557ZM827.444 111.064H834.42C837.018 111.064 839.221 110.421 841.026 109.135C842.859 107.849 843.775 105.688 843.775 102.652C843.775 99.615 842.873 97.4812 841.067 96.2501C839.262 94.9917 837.073 94.3626 834.502 94.3626H827.444V111.064ZM442.07 186.156H457.006C462.778 186.156 467.538 187.318 471.286 189.644C475.061 191.942 477.879 195.129 479.739 199.205C481.599 203.281 482.53 207.945 482.53 213.197C482.53 218.477 481.599 223.155 479.739 227.231C477.879 231.307 475.061 234.508 471.286 236.833C467.538 239.158 462.778 240.321 457.006 240.321H442.07V186.156ZM452.246 195.306V231.17H456.103C459.632 231.17 462.532 230.404 464.803 228.873C467.101 227.313 468.81 225.179 469.932 222.471C471.081 219.763 471.655 216.699 471.655 213.279C471.683 209.833 471.136 206.755 470.014 204.047C468.892 201.338 467.169 199.205 464.844 197.645C462.546 196.086 459.632 195.306 456.103 195.306H452.246ZM505.505 186.156H515.805L536.65 240.321H525.735L521.508 228.626H499.842L495.534 240.321H484.577L505.505 186.156ZM503.207 219.558H518.144L510.716 198.548H510.593L503.207 219.558ZM549.426 220.83L530.919 186.156H543.353L554.514 209.053L565.717 186.156H578.068L559.685 220.83V240.321H549.426V220.83ZM598.95 185.171C602.205 185.171 605.037 185.54 607.444 186.279C609.879 186.99 611.807 187.756 613.23 188.577C614.68 189.397 615.555 189.931 615.856 190.177L610.85 198.507C610.412 198.151 609.66 197.659 608.593 197.03C607.554 196.373 606.295 195.799 604.818 195.306C603.341 194.787 601.74 194.527 600.017 194.527C597.527 194.527 595.53 195.005 594.026 195.963C592.549 196.893 591.81 198.247 591.81 200.025C591.81 201.229 592.207 202.31 593 203.267C593.793 204.197 594.956 205.073 596.488 205.893C598.047 206.714 599.949 207.576 602.192 208.478C604.161 209.244 606.035 210.133 607.813 211.146C609.619 212.158 611.219 213.348 612.614 214.716C614.037 216.083 615.159 217.67 615.979 219.476C616.827 221.281 617.251 223.347 617.251 225.672C617.251 228.271 616.718 230.541 615.651 232.484C614.611 234.426 613.162 236.054 611.301 237.367C609.469 238.68 607.362 239.665 604.982 240.321C602.602 240.978 600.099 241.306 597.473 241.306C593.916 241.306 590.716 240.896 587.871 240.075C585.053 239.227 582.769 238.324 581.018 237.367C579.267 236.409 578.241 235.794 577.94 235.52L583.193 226.862C583.521 227.108 584.137 227.505 585.039 228.052C585.969 228.599 587.091 229.16 588.404 229.734C589.745 230.309 591.195 230.801 592.754 231.211C594.34 231.622 595.955 231.827 597.596 231.827C600.55 231.827 602.78 231.211 604.284 229.98C605.789 228.749 606.541 227.149 606.541 225.179C606.541 223.702 606.063 222.403 605.105 221.281C604.148 220.16 602.794 219.134 601.043 218.204C599.319 217.246 597.254 216.275 594.847 215.29C592.439 214.278 590.196 213.102 588.117 211.761C586.065 210.393 584.41 208.725 583.152 206.755C581.893 204.758 581.264 202.31 581.264 199.41C581.264 196.537 582.071 194.034 583.685 191.9C585.327 189.767 587.488 188.112 590.169 186.935C592.877 185.759 595.804 185.171 598.95 185.171Z" fill="#E94643"/>
<path fill-rule="evenodd" clip-rule="evenodd" d="M372.798 104.907C383.905 134.269 408.662 159.958 440.055 159.958H955.943C960.681 159.958 963.7 164.81 960.938 168.659C960.052 169.894 958.627 170.632 957.107 170.632H439.702C408.438 170.632 383.74 196.12 372.567 225.32C364.872 245.43 353.351 264.049 338.463 280.069C336.13 282.58 332.191 282.573 329.768 280.149C327.344 277.726 327.355 273.804 329.681 271.287C356.412 242.355 371.337 204.352 371.337 164.81C371.337 125.268 356.412 87.2653 329.681 58.3332C327.355 55.8159 327.344 51.8942 329.768 49.4707C332.191 47.0473 336.13 47.0404 338.463 49.551C353.501 65.7322 365.103 84.564 372.798 104.907ZM406.587 168.594C409.317 167.018 409.317 163.078 406.587 161.501L386.852 150.107C384.121 148.531 380.709 150.501 380.709 153.654V176.442C380.709 179.594 384.121 181.565 386.852 179.988L406.587 168.594Z" fill="#1EB7D0"/>
<defs>
<linearGradient id="paint0_linear_11_75" x1="112.532" y1="84.6249" x2="173.43" y2="239.937" gradientUnits="userSpaceOnUse">
<stop stop-color="#FF7575"/>
<stop offset="1" stop-color="#FF0000"/>
</linearGradient>
<linearGradient id="paint1_linear_11_75" x1="112.532" y1="84.6249" x2="173.43" y2="239.937" gradientUnits="userSpaceOnUse">
<stop stop-color="#FF7575"/>
<stop offset="1" stop-color="#FF0000"/>
</linearGradient>
</defs>
</svg>
